<svg width="241" height="127" viewBox="0 0 241 127" fill="none" xmlns="http://www.w3.org/2000/svg">
<g clip-path="url(#clip0_901_51790)">
<rect x="241" width="127" height="241" rx="4" transform="rotate(90 241 0)" fill="#FFA834"/>
<path opacity="0.3" d="M208.849 54.651C199.043 74.5323 180.795 89.5216 158.004 96.4072C136.969 102.767 112.318 102.449 93.1779 111.795C72.9468 121.677 60.9686 142.462 62.1004 165.697C62.7507 179.036 68.1291 193.891 79.9128 204.108C91.3278 214.004 107.018 217.926 120.558 216.941C134.105 215.958 145.875 210.674 156.746 204.674C199.501 181.076 232.357 145.289 253.697 103.103C261.18 88.3067 267.357 72.3667 267.306 54.6975C267.25 37.0246 260.179 17.2629 245.038 3.02661C239.659 -2.02967 228.039 -11.3702 220.608 -11.8568C210.684 -12.5043 216.139 0.531186 216.8 7.30836C218.452 24.2221 215.774 40.6212 208.849 54.651Z" fill="#9A5800"/>
</g>
<defs>
<clipPath id="clip0_901_51790">
<rect x="241" width="127" height="241" rx="4" transform="rotate(90 241 0)" fill="white"/>
</clipPath>
</defs>
</svg>
