<svg width="40" height="40" viewBox="0 0 40 40" fill="none" xmlns="http://www.w3.org/2000/svg">
<path d="M26 10H14C12.8954 10 12 10.8954 12 12V28C12 29.1046 12.8954 30 14 30H26C27.1046 30 28 29.1046 28 28V12C28 10.8954 27.1046 10 26 10Z" stroke="#F6FBFE" stroke-width="2" stroke-linecap="round" stroke-linejoin="round"/>
<path d="M16 22H16.01M17 30V26H23V30H17ZM16 14H16.01H16ZM24 14H24.01H24ZM20 14H20.01H20ZM20 18H20.01H20ZM20 22H20.01H20ZM24 18H24.01H24ZM24 22H24.01H24ZM16 18H16.01H16Z" stroke="#F6FBFE" stroke-width="2" stroke-linecap="round" stroke-linejoin="round"/>
</svg>
