<svg width="40" height="40" viewBox="0 0 40 40" fill="none" xmlns="http://www.w3.org/2000/svg">
<path d="M29.2104 23.8901C28.5742 25.3946 27.5792 26.7203 26.3123 27.7514C25.0454 28.7825 23.5452 29.4875 21.9428 29.8049C20.3405 30.1222 18.6848 30.0422 17.1205 29.5719C15.5563 29.1015 14.131 28.2551 12.9694 27.1067C11.8078 25.9583 10.9452 24.5428 10.457 22.984C9.96886 21.4252 9.86996 19.7706 10.169 18.1647C10.468 16.5589 11.1559 15.0507 12.1724 13.7721C13.189 12.4935 14.5033 11.4834 16.0004 10.8301" stroke="#F6FBFE" stroke-width="2" stroke-linecap="round" stroke-linejoin="round"/>
<path d="M30 20C30 18.6868 29.7413 17.3864 29.2388 16.1732C28.7362 14.9599 27.9997 13.8575 27.0711 12.9289C26.1425 12.0003 25.0401 11.2638 23.8268 10.7612C22.6136 10.2587 21.3132 10 20 10V20H30Z" stroke="#F6FBFE" stroke-width="2" stroke-linecap="round" stroke-linejoin="round"/>
</svg>
